<svg width="51" height="50" viewBox="0 0 51 50" fill="none" xmlns="http://www.w3.org/2000/svg">
<path d="M4.3267 49.2128C13.2022 49.6797 22.0975 49.5842 30.9591 48.9269C32.8546 48.793 34.7527 48.6286 36.6306 48.4392C40.803 48.045 44.9511 47.4312 49.0578 46.6004C49.6651 45.3442 50.8586 42.8755 50.8586 42.8755L40.0783 35.5781L35.6505 32.5807L35.6338 32.5884C36.488 21.1081 32.961 9.72274 25.7585 0.710695C25.7396 0.825475 25.7158 0.948222 25.6957 1.06512C23.4681 12.15 19.4484 22.7977 13.7936 32.5924C10.4153 38.7583 5.94561 44.2628 0.600142 48.8405C1.62077 48.9726 2.69247 49.077 3.78931 49.1661C3.96992 49.181 4.14448 49.1991 4.3267 49.2128Z" fill="#343849"/>
</svg>
