<svg width="82" height="90" viewBox="0 0 82 90" fill="none" xmlns="http://www.w3.org/2000/svg">
<path d="M36.0243 12.7596L36.0259 12.7604C49.9511 19.5051 63.4414 27.1233 76.4153 35.5691C76.5649 35.6714 76.7015 35.768 76.8415 35.8671C76.9492 35.9432 77.059 36.0209 77.1785 36.1038L77.1789 36.1041C78.4258 36.9671 79.6387 37.8295 80.7936 38.6894C69.1033 40.9777 57.9188 45.2987 47.7482 51.4595C30.8157 61.2056 15.5895 73.6285 2.65437 88.2497C-0.0639776 68.8683 4.4849 49.2147 15.4453 33.0916L15.9202 32.393L15.3266 32.3366L11.3627 24.2091L1.60239 4.19735L1.89067 4.00188L3.46449 2.93474L6.98343 0.548824C13.8043 2.86328 20.5028 5.53145 27.0512 8.54244L27.0541 8.54375C30.0487 9.89775 33.0517 11.307 36.0243 12.7596Z" stroke="white"/>
</svg>
