<svg width="50" height="44" viewBox="0 0 50 44" fill="none" xmlns="http://www.w3.org/2000/svg">
<path d="M49.4297 40.54C47.689 32.4013 45.4309 24.3808 42.6691 16.5272C42.0844 14.8456 41.4714 13.1691 40.8404 11.5169C39.4628 7.83966 37.891 4.23748 36.1316 0.725476C34.8387 0.480745 32.2977 2.11004e-07 32.2977 2.11004e-07L28.2788 11.5169L26.6281 16.2473L26.6392 16.2605C15.9689 18.2709 6.45458 24.22 3.92709e-07 32.9173C0.109215 32.9066 0.226876 32.8984 0.338307 32.8882C10.9834 32.2155 21.6675 33.2693 31.9733 36.0084C38.4167 37.5686 44.5238 40.276 50 44C49.8713 43.0451 49.7048 42.0507 49.5183 41.0373C49.4878 40.8704 49.4617 40.7081 49.4297 40.54Z" fill="#343849"/>
</svg>
