<svg width="152" height="61" viewBox="0 0 152 61" fill="none" xmlns="http://www.w3.org/2000/svg">
<path d="M43.956 33.5H35.3692C34.3071 35.8083 32.3713 37.6077 30 38.4512C31.9936 39.2539 35.7898 40.5222 39.7079 41.5C41.8131 39.2593 43.2936 36.4998 44 33.5H43.956Z" fill="#F04451"/>
<path d="M26.393 39.1349C23.6803 37.5511 21.1948 35.6424 19.5617 33.5C19.4822 33.9445 19.4144 34.4122 19.3558 34.8956C19.3548 34.9034 19.3539 34.9123 19.353 34.9201C19.1117 36.9282 18.9076 40.9872 19.0436 45.0975C19.1205 47.424 19.306 49.7666 19.6563 51.7623C20.1384 52.0111 21.0856 52.5 21.0856 52.5L25.3605 46.9488C25.6312 46.9771 25.904 46.9982 26.1782 47.0147C26.1881 47.0153 26.1979 47.0163 26.2078 47.0169C26.3502 47.0264 26.4926 47.0298 26.635 47.0361C26.858 47.044 27.0809 47.0524 27.3059 47.0524C27.3108 47.0524 27.3158 47.0521 27.3207 47.0521C31.1566 47.0809 34.9004 45.9208 38 43.743C37.9573 43.7344 37.9118 43.724 37.8685 43.7149C34.8788 43.094 30.3902 41.4686 26.393 39.1349Z" fill="#F04451"/>
<path d="M21 24.5C20.6094 24.5514 20.2026 24.618 19.788 24.6926C19.7197 24.7049 19.6533 24.7153 19.5846 24.7281C17.6011 25.0978 13.6706 26.1025 9.76112 27.4323C7.46646 28.2128 5.17901 29.1051 3.29676 30.0473C3.19667 30.5645 3 31.5808 3 31.5808L9.64663 33.8487C9.64663 33.8487 9.64961 33.8462 9.652 33.8443C10.4745 38.1124 12.9082 41.9181 16.4662 44.5C16.4618 44.4562 16.4584 44.4092 16.4543 44.3646C16.165 41.2639 16.474 36.2918 17.7307 31.7106C18.4695 29.0172 19.5346 26.4596 21 24.5Z" fill="#F04451"/>
<path d="M22.943 21.8604C25.8091 21.7583 28.6389 22.0103 31 22.8268C30.8334 22.4672 30.647 22.0967 30.4505 21.7211C30.4181 21.6593 30.3882 21.5987 30.3551 21.5365C29.4023 19.7434 27.2468 16.2722 24.778 12.919C23.329 10.9509 21.7723 9.0234 20.287 7.5C19.749 7.55976 18.692 7.67713 18.692 7.67713L18.4391 14.7425C18.4391 14.7425 18.4424 14.7446 18.4451 14.7463C14.4956 16.8221 11.4794 20.3057 10 24.5C10.0417 24.4826 10.0869 24.4652 10.1295 24.4478C13.0904 23.2357 18.0679 22.0342 22.943 21.8604Z" fill="#F04451"/>
<path d="M34.0211 22.2119C34.4747 23.2474 34.8744 24.3048 35.2184 25.3801C35.2311 25.4201 35.2439 25.46 35.2563 25.5H44C43.8349 24.8567 43.6317 24.2235 43.3915 23.6033C43.3293 23.4424 43.2656 23.2823 43.1987 23.1237C40.6869 17.1709 34.8757 12.8993 28 12.5C29.8416 14.5563 32.1922 18.0923 33.9125 21.9657C33.949 22.0477 33.9851 22.1298 34.0211 22.2119Z" fill="#F04451"/>
<path d="M55.63 30.52C55.63 29.74 55.768 28.978 56.044 28.234C56.32 27.478 56.722 26.794 57.25 26.182C57.79 25.558 58.444 25.066 59.212 24.706C59.98 24.334 60.85 24.148 61.822 24.148C62.974 24.148 63.97 24.412 64.81 24.94C65.65 25.456 66.274 26.122 66.682 26.938L65.098 28C64.858 27.484 64.552 27.076 64.18 26.776C63.82 26.476 63.424 26.266 62.992 26.146C62.572 26.026 62.158 25.966 61.75 25.966C61.078 25.966 60.49 26.104 59.986 26.38C59.482 26.644 59.056 26.998 58.708 27.442C58.372 27.886 58.114 28.384 57.934 28.936C57.766 29.488 57.682 30.04 57.682 30.592C57.682 31.204 57.784 31.798 57.988 32.374C58.192 32.938 58.474 33.442 58.834 33.886C59.206 34.318 59.644 34.66 60.148 34.912C60.652 35.164 61.204 35.29 61.804 35.29C62.212 35.29 62.638 35.218 63.082 35.074C63.526 34.93 63.934 34.708 64.306 34.408C64.69 34.096 64.99 33.688 65.206 33.184L66.88 34.138C66.616 34.774 66.202 35.314 65.638 35.758C65.086 36.202 64.462 36.538 63.766 36.766C63.082 36.994 62.404 37.108 61.732 37.108C60.832 37.108 60.01 36.922 59.266 36.55C58.522 36.166 57.88 35.662 57.34 35.038C56.8 34.402 56.38 33.694 56.08 32.914C55.78 32.122 55.63 31.324 55.63 30.52ZM69.3467 24.22L72.8747 30.574L76.4387 24.22H78.6527L73.8827 32.428V37H71.8667V32.392L67.1327 24.22H69.3467ZM87.291 27.226C87.171 27.094 86.997 26.956 86.769 26.812C86.541 26.656 86.271 26.512 85.959 26.38C85.647 26.248 85.311 26.14 84.951 26.056C84.591 25.972 84.219 25.93 83.835 25.93C82.995 25.93 82.371 26.086 81.963 26.398C81.555 26.71 81.351 27.142 81.351 27.694C81.351 28.102 81.465 28.426 81.693 28.666C81.921 28.894 82.269 29.086 82.737 29.242C83.205 29.398 83.793 29.566 84.501 29.746C85.365 29.95 86.115 30.196 86.751 30.484C87.387 30.76 87.873 31.132 88.209 31.6C88.545 32.068 88.713 32.686 88.713 33.454C88.713 34.102 88.593 34.66 88.353 35.128C88.113 35.596 87.777 35.98 87.345 36.28C86.913 36.568 86.415 36.784 85.851 36.928C85.287 37.06 84.681 37.126 84.033 37.126C83.397 37.126 82.761 37.06 82.125 36.928C81.501 36.796 80.901 36.604 80.325 36.352C79.761 36.088 79.239 35.77 78.759 35.398L79.677 33.67C79.833 33.826 80.055 34 80.343 34.192C80.643 34.372 80.985 34.546 81.369 34.714C81.765 34.882 82.191 35.026 82.647 35.146C83.115 35.254 83.589 35.308 84.069 35.308C84.873 35.308 85.485 35.17 85.905 34.894C86.337 34.606 86.553 34.198 86.553 33.67C86.553 33.238 86.415 32.896 86.139 32.644C85.863 32.38 85.461 32.158 84.933 31.978C84.405 31.798 83.775 31.618 83.043 31.438C82.203 31.21 81.501 30.964 80.937 30.7C80.373 30.424 79.947 30.076 79.659 29.656C79.383 29.224 79.245 28.678 79.245 28.018C79.245 27.178 79.449 26.47 79.857 25.894C80.265 25.306 80.817 24.868 81.513 24.58C82.221 24.28 83.013 24.13 83.889 24.13C84.465 24.13 85.011 24.196 85.527 24.328C86.043 24.448 86.523 24.616 86.967 24.832C87.423 25.048 87.837 25.294 88.209 25.57L87.291 27.226ZM90.7349 37V24.22H96.0989C96.6749 24.22 97.2029 24.34 97.6829 24.58C98.1629 24.82 98.5829 25.138 98.9429 25.534C99.3029 25.93 99.5789 26.374 99.7709 26.866C99.9629 27.358 100.059 27.862 100.059 28.378C100.059 29.086 99.8969 29.764 99.5729 30.412C99.2609 31.048 98.8109 31.564 98.2229 31.96C97.6469 32.356 96.9749 32.554 96.2069 32.554H92.7509V37H90.7349ZM92.7509 30.772H96.0809C96.4649 30.772 96.8009 30.67 97.0889 30.466C97.3769 30.25 97.5989 29.962 97.7549 29.602C97.9229 29.242 98.0069 28.834 98.0069 28.378C98.0069 27.91 97.9109 27.496 97.7189 27.136C97.5269 26.776 97.2749 26.5 96.9629 26.308C96.6629 26.104 96.3329 26.002 95.9729 26.002H92.7509V30.772ZM103.966 27.964V37H101.95V24.22H103.606L110.842 33.454V24.238H112.876V37H111.112L103.966 27.964ZM124.515 35.218V37H115.749V24.22H124.353V26.002H117.765V29.638H123.471V31.312H117.765V35.218H124.515ZM135.972 26.002H131.724V37H129.69V26.002H125.424V24.22H135.972V26.002Z" fill="white"/>
</svg>
